<mxfile host="app.diagrams.net" agent="Mozilla/5.0 (Windows NT 10.0; Win64; x64) AppleWebKit/537.36 (KHTML, like Gecko) Chrome/136.0.0.0 Safari/537.36" version="27.0.6">
  <diagram id="wEW4Fksej3ZmqsxHKoeP" name="Pagina-1">
    <mxGraphModel dx="595" dy="321" grid="1" gridSize="10" guides="1" tooltips="1" connect="1" arrows="1" fold="1" page="1" pageScale="1" pageWidth="827" pageHeight="1169" math="0" shadow="0">
      <root>
        <mxCell id="0" />
        <mxCell id="1" parent="0" />
        <mxCell id="VED9zOC5IP4Gpjft0-jV-2" value="" style="shape=image;verticalLabelPosition=bottom;labelBackgroundColor=default;verticalAlign=top;aspect=fixed;imageAspect=0;image=https://static.thenounproject.com/png/1728613-200.png;" vertex="1" parent="1">
          <mxGeometry x="170" y="110" width="250" height="250" as="geometry" />
        </mxCell>
        <mxCell id="VED9zOC5IP4Gpjft0-jV-4" value="" style="rounded=0;whiteSpace=wrap;html=1;rotation=-45;" vertex="1" parent="1">
          <mxGeometry x="237.07" y="152.93" width="100" height="60" as="geometry" />
        </mxCell>
        <mxCell id="VED9zOC5IP4Gpjft0-jV-5" value="" style="endArrow=classic;html=1;rounded=0;" edge="1" parent="1">
          <mxGeometry width="50" height="50" relative="1" as="geometry">
            <mxPoint x="120" y="360" as="sourcePoint" />
            <mxPoint x="120" y="80" as="targetPoint" />
          </mxGeometry>
        </mxCell>
        <mxCell id="VED9zOC5IP4Gpjft0-jV-6" value="" style="endArrow=classic;html=1;rounded=0;" edge="1" parent="1">
          <mxGeometry width="50" height="50" relative="1" as="geometry">
            <mxPoint x="120" y="360" as="sourcePoint" />
            <mxPoint x="480" y="360" as="targetPoint" />
          </mxGeometry>
        </mxCell>
        <mxCell id="VED9zOC5IP4Gpjft0-jV-7" value="" style="shape=image;verticalLabelPosition=bottom;labelBackgroundColor=default;verticalAlign=top;aspect=fixed;imageAspect=0;image=https://upload.wikimedia.org/wikipedia/commons/thumb/5/51/Center_of_Gravity_symbol.svg/2048px-Center_of_Gravity_symbol.svg.png;" vertex="1" parent="1">
          <mxGeometry x="277.07" y="172.93" width="20" height="20" as="geometry" />
        </mxCell>
        <mxCell id="VED9zOC5IP4Gpjft0-jV-10" value="" style="endArrow=classic;html=1;rounded=0;entryX=0.75;entryY=0;entryDx=0;entryDy=0;" edge="1" parent="1" target="VED9zOC5IP4Gpjft0-jV-2">
          <mxGeometry width="50" height="50" relative="1" as="geometry">
            <mxPoint x="287" y="180" as="sourcePoint" />
            <mxPoint x="337.07" y="130" as="targetPoint" />
          </mxGeometry>
        </mxCell>
        <mxCell id="VED9zOC5IP4Gpjft0-jV-11" value="" style="endArrow=none;dashed=1;html=1;rounded=0;" edge="1" parent="1">
          <mxGeometry width="50" height="50" relative="1" as="geometry">
            <mxPoint x="289.99999999999994" y="182.64252622693837" as="sourcePoint" />
            <mxPoint x="360" y="182.82" as="targetPoint" />
          </mxGeometry>
        </mxCell>
        <mxCell id="VED9zOC5IP4Gpjft0-jV-12" value="" style="endArrow=none;dashed=1;html=1;rounded=0;entryX=-0.001;entryY=0.36;entryDx=0;entryDy=0;entryPerimeter=0;exitX=0.464;exitY=0.002;exitDx=0;exitDy=0;exitPerimeter=0;" edge="1" parent="1" source="VED9zOC5IP4Gpjft0-jV-2">
          <mxGeometry width="50" height="50" relative="1" as="geometry">
            <mxPoint x="287.03" y="120" as="sourcePoint" />
            <mxPoint x="286.78" y="180" as="targetPoint" />
            <Array as="points">
              <mxPoint x="287.03" y="150" />
            </Array>
          </mxGeometry>
        </mxCell>
        <mxCell id="VED9zOC5IP4Gpjft0-jV-13" value="" style="endArrow=none;dashed=1;html=1;dashPattern=1 3;strokeWidth=2;rounded=0;" edge="1" parent="1">
          <mxGeometry width="50" height="50" relative="1" as="geometry">
            <mxPoint x="120" y="360" as="sourcePoint" />
            <mxPoint x="287.07" y="180" as="targetPoint" />
          </mxGeometry>
        </mxCell>
        <mxCell id="VED9zOC5IP4Gpjft0-jV-14" value="" style="verticalLabelPosition=bottom;verticalAlign=top;html=1;shape=mxgraph.basic.arc;startAngle=0.08099143856198054;endAngle=0.25;" vertex="1" parent="1">
          <mxGeometry x="50" y="260" width="210" height="200" as="geometry" />
        </mxCell>
        <mxCell id="VED9zOC5IP4Gpjft0-jV-15" value="Î¸(t)" style="text;html=1;align=center;verticalAlign=middle;whiteSpace=wrap;rounded=0;" vertex="1" parent="1">
          <mxGeometry x="240" y="330" width="60" height="30" as="geometry" />
        </mxCell>
        <mxCell id="VED9zOC5IP4Gpjft0-jV-16" value="x" style="text;html=1;align=center;verticalAlign=middle;whiteSpace=wrap;rounded=0;" vertex="1" parent="1">
          <mxGeometry x="460" y="345" width="60" height="30" as="geometry" />
        </mxCell>
        <mxCell id="VED9zOC5IP4Gpjft0-jV-17" value="y" style="text;html=1;align=center;verticalAlign=middle;whiteSpace=wrap;rounded=0;" vertex="1" parent="1">
          <mxGeometry x="90" y="50" width="60" height="30" as="geometry" />
        </mxCell>
        <mxCell id="VED9zOC5IP4Gpjft0-jV-18" value="dx/dt" style="text;html=1;align=center;verticalAlign=middle;whiteSpace=wrap;rounded=0;" vertex="1" parent="1">
          <mxGeometry x="350" y="167.93" width="60" height="30" as="geometry" />
        </mxCell>
        <mxCell id="VED9zOC5IP4Gpjft0-jV-19" value="dy/dt" style="text;html=1;align=center;verticalAlign=middle;whiteSpace=wrap;rounded=0;" vertex="1" parent="1">
          <mxGeometry x="260" y="80" width="60" height="30" as="geometry" />
        </mxCell>
        <mxCell id="VED9zOC5IP4Gpjft0-jV-20" value="v(t)" style="text;html=1;align=center;verticalAlign=middle;whiteSpace=wrap;rounded=0;" vertex="1" parent="1">
          <mxGeometry x="337.07" y="80" width="60" height="30" as="geometry" />
        </mxCell>
      </root>
    </mxGraphModel>
  </diagram>
</mxfile>
